<?xml version="1.0" encoding="UTF-8" standalone="no"?>
<!-- Creator: CorelDRAW X6 -->

<svg
   xml:space="preserve"
   width="316.10284"
   height="219.68401"
   version="1.1"
   style="clip-rule:evenodd;fill-rule:evenodd;image-rendering:optimizeQuality;shape-rendering:geometricPrecision;text-rendering:geometricPrecision"
   viewBox="0 0 3292.9657 2287.6778"
   id="svg1111"
   sodipodi:docname="dpc_cmyk_Portrait.svg"
   inkscape:version="1.4 (86a8ad7, 2024-10-11)"
   xmlns:inkscape="http://www.inkscape.org/namespaces/inkscape"
   xmlns:sodipodi="http://sodipodi.sourceforge.net/DTD/sodipodi-0.dtd"
   xmlns="http://www.w3.org/2000/svg"
   xmlns:svg="http://www.w3.org/2000/svg"
   xmlns:rdf="http://www.w3.org/1999/02/22-rdf-syntax-ns#"
   xmlns:cc="http://creativecommons.org/ns#"
   xmlns:dc="http://purl.org/dc/elements/1.1/"><metadata
   id="metadata1115"><rdf:RDF><cc:Work
       rdf:about=""><dc:format>image/svg+xml</dc:format><dc:type
         rdf:resource="http://purl.org/dc/dcmitype/StillImage" /></cc:Work></rdf:RDF></metadata><sodipodi:namedview
   pagecolor="#ffffff"
   bordercolor="#666666"
   borderopacity="1"
   objecttolerance="10"
   gridtolerance="10"
   guidetolerance="10"
   inkscape:pageopacity="0"
   inkscape:pageshadow="2"
   inkscape:window-width="3840"
   inkscape:window-height="2054"
   id="namedview1113"
   showgrid="false"
   inkscape:zoom="3.0816116"
   inkscape:cx="213.52464"
   inkscape:cy="140.34864"
   inkscape:window-x="-11"
   inkscape:window-y="-11"
   inkscape:window-maximized="1"
   inkscape:current-layer="Layer_x0020_1"
   inkscape:showpageshadow="2"
   inkscape:pagecheckerboard="0"
   inkscape:deskcolor="#d1d1d1"
   inkscape:document-units="in" />
 <defs
   id="defs1039">
  <style
   type="text/css"
   id="style1037">
   <![CDATA[
    .fil1 {fill:#009483;fill-rule:nonzero}
    .fil0 {fill:#727376;fill-rule:nonzero}
   ]]>
  </style>
 </defs>
 <g
   id="Layer_x0020_1"
   transform="matrix(0.9501548,0,0,0.91208603,893.41924,1267.1628)"
   inkscape:label="Layer 1"
   inkscape:groupmode="layer">
  <metadata
   id="CorelCorpID_0Corel-Layer" />
  
  
  
  
  
  
  
  
  
  
  
  
  
  
  
  
  
  
  
  
  
  
  
  
  
  
  
  
  <path
   class="fil1"
   d="m 393.74907,-400.78006 h 2.61329 c 78.39838,-112.03708 229.96872,-157.32867 389.3789,-157.32867 195.99614,0 337.11334,66.7455 425.96494,162.09621 107.1445,-109.65332 279.6211,-171.63129 501.7499,-171.63129 154.1836,0 501.7499,47.67536 559.2423,359.94895 h -277.0079 c -18.293,-95.35072 -130.664,-174.01506 -282.2344,-174.01506 -245.6483,0 -352.7929,152.56114 -352.7929,312.273596 0,162.096211 96.6914,312.273574 324.0469,312.273574 206.4492,0 261.328,-73.89682 316.2069,-205.004035 h 277.0079 c 0,7.151299 -2.6132,11.918852 -2.6132,19.07015 C 2497.4406,-272.0566 2554.9328,-620.0867 2392.9092,-898.98752 2105.4484,-1394.8113 1232.6124,-1494.9294 393.74907,-1146.8994 Z"
   id="path1098"
   inkscape:connector-curvature="0"
   style="fill:#009483;fill-rule:nonzero;stroke-width:2.49589" />
  <path
   class="fil1"
   d="m -199.46578,-372.17485 c -248.26173,0 -342.33985,152.56114 -342.33985,305.122284 0,157.328679 94.07812,309.889816 342.33985,309.889816 198.60937657,0 297.914064,-97.73448 329.27344,-219.306644 V -157.63575 C 98.448284,-276.82414 -0.85640343,-374.55862 -199.46578,-374.55862 Z"
   id="path1100"
   inkscape:connector-curvature="0"
   style="fill:#009483;fill-rule:nonzero;stroke-width:2.49589" />
  <path
   class="fil1"
   d="m 725.63584,242.83725 c 248.26165,0 342.33976,-152.561137 342.33976,-309.889816 0,-154.944914 -94.07811,-305.122284 -342.33976,-305.122284 -198.60938,0 -297.91413,97.73447 -329.27348,216.92288 V 25.914375 C 427.72171,145.10277 527.02646,245.22101 725.63584,245.22101 Z"
   id="path1102"
   inkscape:connector-curvature="0"
   style="fill:#009483;fill-rule:nonzero;stroke-width:2.49589" />
  <path
   class="fil1"
   d="m 1716.0695,428.77113 c -237.8086,0 -397.2188,-66.74549 -499.1368,-166.86374 -91.4649,97.73448 -232.58204,166.86374 -431.19144,166.86374 -211.67577,0 -371.08595,-107.26954 -389.3789,-162.09622 h -2.61329 v 128.72346 0 688.90903 c 305.75396,-23.8378 632.41403,-112.03727 951.23433,-264.59836 253.4883,-121.57215 473.004,-274.13329 650.7071,-438.61326 -122.8241,47.67535 -245.6484,50.05912 -282.2344,50.05912 z"
   id="path1104"
   inkscape:connector-curvature="0"
   style="fill:#009483;fill-rule:nonzero;stroke-width:2.49589" />
  <path
   class="fil1"
   d="m -262.18453,-558.10873 c 159.41016,0 310.980481,45.29159 389.37892,157.32867 h 2.61327 v -133.491 0 -486.28864 c -271.78125,145.40985 -499.13672,326.5762 -669.00002,517.27762 75.78516,-33.37274 167.25001,-54.82665 277.00783,-54.82665 z"
   id="path1106"
   inkscape:connector-curvature="0"
   style="fill:#009483;fill-rule:nonzero;stroke-width:2.49589" />
  <path
   class="fil1"
   d="m 129.80766,266.67491 h -2.61327 c -18.29298,54.82668 -177.703136,162.09622 -389.37892,162.09622 -384.15235,0 -554.01563,-255.06315 -556.62891,-491.056155 -99.3047,245.528085 -99.3047,491.056155 20.90623,698.443955 162.02345,278.90083 506.97658,431.46197 930.32815,452.91597 V 266.67491 Z"
   id="path1108"
   inkscape:connector-curvature="0"
   style="fill:#009483;fill-rule:nonzero;stroke-width:2.49589" />
 </g>
</svg>
